IKResults
version=1
nRows=4
nColumns=63
inDegrees=yes

Units are S.I. units (second, meters, Newtons, ...)
If the header above contains a line with 'inDegrees', this indicates whether rotational values are in degrees (yes) or radians (no).

endheader
time	pelvis_tilt	pelvis_list	pelvis_rotation	pelvis_tx	pelvis_ty	pelvis_tz	hip_flexion_r	hip_adduction_r	hip_rotation_r	knee_angle_r	knee_angle_r_beta	ankle_angle_r	subtalar_angle_r	mtp_angle_r	hip_flexion_l	hip_adduction_l	hip_rotation_l	knee_angle_l	knee_angle_l_beta	ankle_angle_l	subtalar_angle_l	mtp_angle_l	L5_S1_Flex_Ext	L5_S1_Lat_Bending	L5_S1_axial_rotation	L4_L5_Flex_Ext	L4_L5_Lat_Bending	L4_L5_axial_rotation	L3_L4_Flex_Ext	L3_L4_Lat_Bending	L3_L4_axial_rotation	L2_L3_Flex_Ext	L2_L3_Lat_Bending	L2_L3_axial_rotation	L1_L2_Flex_Ext	L1_L2_Lat_Bending	L1_L2_axial_rotation	L1_T12_Flex_Ext	L1_T12_Lat_Bending	L1_T12_axial_rotation	Abs_r3	Abs_r2	Abs_r1	Abs_t1	Abs_t2	neck_flexion	neck_bending	neck_rotation	arm_flex_r	arm_add_r	arm_rot_r	elbow_flex_r	pro_sup_r	wrist_flex_r	wrist_dev_r	arm_flex_l	arm_add_l	arm_rot_l	elbow_flex_l	pro_sup_l	wrist_flex_l	wrist_dev_l
      6.03333333	   -173.04067466	   -169.59476644	   -174.16653704	     -0.65299807	      0.85796333	      0.52177497	     22.23625012	      9.14527115	    -13.49988365	     47.75505812	      0.83348300	     28.34137805	    -12.50197473	      0.00000000	      6.97954462	    -13.94271549	    -18.13737409	     71.51842684	      1.24823202	      0.00000000	      0.00000000	      0.00000000	     -4.52278547	      2.53767749	     -1.00072919	     -8.39926489	      3.37511106	     -1.06327477	     -7.43048425	      6.17010905	     -1.06327477	     -5.16909151	      6.17010905	     -0.87563804	     -4.19985859	      5.17483194	     -0.81309247	     -2.58431962	      3.93086243	     -0.75054689	    -32.30580432	     28.70671530	     -5.56575555	      0.00000000	      0.00000000	     28.51231855	     -8.89816197	     14.14672435	      6.57212266	    -31.96355666	    328.33362701	     13.66791686	     89.99559364	      0.00000000	      0.00000000	      9.72081094	    -16.84079907	     29.49126927	     43.91800578	     89.99559364	      0.00000000	      0.00000000
      6.06666667	   -243.86938886	   -173.53459363	   -181.27629464	     -0.61497555	      0.78860929	      0.54846463	     86.39553637	      5.31328268	     -8.96825765	     37.83985429	      0.66043005	     23.56151791	    -14.71832567	      0.00000000	     70.08232978	     -6.53886111	    -22.33207023	     55.95299773	      0.97656404	      0.00000000	      0.00000000	      0.00000000	      9.52746800	      1.87376545	     -1.42386147	     17.69346082	      2.49210805	     -1.51285281	     15.65267718	      4.55587332	     -1.51285281	     10.88894318	      4.55587332	     -1.24587878	      8.84720679	      3.82098251	     -1.15688744	      5.44399522	      2.90246268	     -1.06789610	     68.05375118	     21.19640954	     -7.91909031	      0.00000000	      0.00000000	      2.80548169	    -11.13297911	      2.67011495	    -22.65839299	    -31.17977813	    517.27728640	      0.58926839	     89.99559364	      0.00000000	      0.00000000	    -31.11221545	    -18.11130766	     19.63838632	     52.83863044	     89.99559364	      0.00000000	      0.00000000
      6.10000000	   -240.43554394	   -172.01697807	   -180.23692307	     -0.61877183	      0.80338139	      0.55415411	     81.34743728	      6.01591015	     -9.39308318	     33.51745004	      0.58498986	     21.01286121	    -15.58131160	      0.00000000	     64.63738341	     -6.03948108	    -22.25262919	     50.55074626	      0.88227696	      0.00000000	      0.00000000	      0.00000000	      9.11999991	      1.83223508	     -1.65430165	     16.93675184	      2.43687265	     -1.75769550	     14.98324786	      4.45489637	     -1.75769550	     10.42324790	      4.45489637	     -1.44751394	      8.46883192	      3.73629377	     -1.34412009	      5.21116795	      2.83813213	     -1.24072624	     65.14324738	     20.72660964	     -9.20072949	      0.00000000	      0.00000000	      2.84230385	    -10.57103437	      2.05143735	    -22.27781361	    -29.14867543	    518.07581030	      0.50046396	     89.99559364	      0.00000000	      0.00000000	    -30.38390228	    -17.85462534	     19.06742201	     51.71856355	     89.99559364	      0.00000000	      0.00000000
      6.13333333	   -237.10552399	   -170.74778740	   -179.06913992	     -0.62384206	      0.81638094	      0.55951179	     76.73933170	      6.57193733	     -9.68679517	     29.73560926	      0.51898429	     18.84282713	    -16.00253520	      0.00000000	     59.38290986	     -5.55832355	    -22.22362988	     45.33065697	      0.79116922	      0.00000000	      0.00000000	      0.00000000	      8.71203236	      1.76787320	     -1.85758065	     16.17911530	      2.35127135	     -1.97367944	     14.31299797	      4.29840689	     -1.97367944	      9.95698179	      4.29840689	     -1.62538307	      8.08999325	      3.60504702	     -1.50928428	      4.97805529	      2.73843558	     -1.39318549	     62.22917596	     19.99853519	    -10.33130629	      0.00000000	      0.00000000	      3.06194653	     -9.76772751	      1.41200930	    -21.78824722	    -27.15898038	    518.54125540	      0.44218683	     89.99559364	      0.00000000	      0.00000000	    -29.67663536	    -17.74483544	     18.35788082	     50.61251004	     89.99559364	      0.00000000	      0.00000000
